<mxfile host="app.diagrams.net" modified="2021-11-24T13:51:55.054Z" agent="5.0 (Windows NT 10.0; Win64; x64) AppleWebKit/537.36 (KHTML, like Gecko) Chrome/96.0.4664.45 Safari/537.36" etag="lKxm22aAbnJHycj6WxH5" version="15.8.3" type="github">
  <diagram id="_1e6eq4gqQpixzHqWoPJ" name="Page-1">
    <mxGraphModel dx="2871" dy="1014" grid="0" gridSize="10" guides="1" tooltips="1" connect="1" arrows="1" fold="1" page="1" pageScale="1" pageWidth="827" pageHeight="1169" math="0" shadow="0">
      <root>
        <mxCell id="0" />
        <mxCell id="1" parent="0" />
        <mxCell id="u-FrUHWEFDejLxlOJI8D-13" value="" style="edgeStyle=orthogonalEdgeStyle;rounded=0;orthogonalLoop=1;jettySize=auto;html=1;fontSize=18;" parent="1" source="u-FrUHWEFDejLxlOJI8D-1" target="u-FrUHWEFDejLxlOJI8D-11" edge="1">
          <mxGeometry relative="1" as="geometry" />
        </mxCell>
        <mxCell id="u-FrUHWEFDejLxlOJI8D-1" value="Biðja Notenda um aðgang&amp;nbsp;&lt;br&gt;(Starfsmaður / Yfirmaður)" style="rounded=1;whiteSpace=wrap;html=1;fillColor=#CCFFCC;" parent="1" vertex="1">
          <mxGeometry x="265" y="210" width="210" height="90" as="geometry" />
        </mxCell>
        <mxCell id="u-FrUHWEFDejLxlOJI8D-2" value="" style="ellipse;html=1;shape=startState;fillColor=#000000;strokeColor=#ff0000;" parent="1" vertex="1">
          <mxGeometry x="355" y="120" width="30" height="30" as="geometry" />
        </mxCell>
        <mxCell id="u-FrUHWEFDejLxlOJI8D-3" value="" style="edgeStyle=orthogonalEdgeStyle;html=1;verticalAlign=bottom;endArrow=open;endSize=8;strokeColor=#ff0000;rounded=0;" parent="1" source="u-FrUHWEFDejLxlOJI8D-2" edge="1">
          <mxGeometry relative="1" as="geometry">
            <mxPoint x="370" y="210" as="targetPoint" />
          </mxGeometry>
        </mxCell>
        <mxCell id="u-FrUHWEFDejLxlOJI8D-4" value="Menu Display&lt;br&gt;(Employee)" style="rounded=1;whiteSpace=wrap;html=1;fillColor=#E5CCFF;" parent="1" vertex="1">
          <mxGeometry x="47" y="416" width="210" height="90" as="geometry" />
        </mxCell>
        <mxCell id="u-FrUHWEFDejLxlOJI8D-8" value="&lt;b&gt;&lt;font style=&quot;font-size: 18px&quot;&gt;UI Layer&lt;/font&gt;&lt;/b&gt;" style="text;html=1;align=center;verticalAlign=middle;resizable=0;points=[];autosize=1;strokeColor=none;fillColor=none;" parent="1" vertex="1">
          <mxGeometry x="324" y="72" width="90" height="20" as="geometry" />
        </mxCell>
        <mxCell id="u-FrUHWEFDejLxlOJI8D-11" value="&lt;font style=&quot;font-size: 12px&quot;&gt;M/E&lt;/font&gt;" style="rhombus;whiteSpace=wrap;html=1;fontSize=18;fillColor=#CCCCCC;" parent="1" vertex="1">
          <mxGeometry x="336" y="321" width="68" height="57" as="geometry" />
        </mxCell>
        <mxCell id="u-FrUHWEFDejLxlOJI8D-14" value="" style="endArrow=classic;html=1;rounded=0;fontSize=12;exitX=0.5;exitY=1;exitDx=0;exitDy=0;entryX=0.5;entryY=0;entryDx=0;entryDy=0;" parent="1" source="u-FrUHWEFDejLxlOJI8D-11" target="u-FrUHWEFDejLxlOJI8D-4" edge="1">
          <mxGeometry width="50" height="50" relative="1" as="geometry">
            <mxPoint x="393" y="469" as="sourcePoint" />
            <mxPoint x="443" y="419" as="targetPoint" />
            <Array as="points">
              <mxPoint x="152" y="378" />
            </Array>
          </mxGeometry>
        </mxCell>
        <mxCell id="u-FrUHWEFDejLxlOJI8D-15" value="Menu Display&lt;br&gt;(Manager)" style="rounded=1;whiteSpace=wrap;html=1;fillColor=#E5CCFF;" parent="1" vertex="1">
          <mxGeometry x="617" y="407" width="210" height="90" as="geometry" />
        </mxCell>
        <mxCell id="u-FrUHWEFDejLxlOJI8D-16" value="" style="endArrow=classic;html=1;rounded=0;fontSize=12;entryX=0.5;entryY=0;entryDx=0;entryDy=0;exitX=0.5;exitY=1;exitDx=0;exitDy=0;" parent="1" source="u-FrUHWEFDejLxlOJI8D-11" target="u-FrUHWEFDejLxlOJI8D-15" edge="1">
          <mxGeometry width="50" height="50" relative="1" as="geometry">
            <mxPoint x="369" y="382" as="sourcePoint" />
            <mxPoint x="443" y="419" as="targetPoint" />
            <Array as="points">
              <mxPoint x="722" y="374" />
            </Array>
          </mxGeometry>
        </mxCell>
        <mxCell id="u-FrUHWEFDejLxlOJI8D-17" value="Verkbeiðnir" style="rounded=1;whiteSpace=wrap;html=1;fontSize=12;fillColor=#FFCCE6;" parent="1" vertex="1">
          <mxGeometry x="-55" y="586" width="120" height="60" as="geometry" />
        </mxCell>
        <mxCell id="u-FrUHWEFDejLxlOJI8D-19" value="Listi fasteigna" style="rounded=1;whiteSpace=wrap;html=1;fontSize=12;fillColor=#33FFFF;" parent="1" vertex="1">
          <mxGeometry x="101" y="687" width="120" height="60" as="geometry" />
        </mxCell>
        <mxCell id="u-FrUHWEFDejLxlOJI8D-31" value="" style="edgeStyle=orthogonalEdgeStyle;rounded=0;orthogonalLoop=1;jettySize=auto;html=1;fontSize=12;" parent="1" source="u-FrUHWEFDejLxlOJI8D-20" target="u-FrUHWEFDejLxlOJI8D-30" edge="1">
          <mxGeometry relative="1" as="geometry" />
        </mxCell>
        <mxCell id="u-FrUHWEFDejLxlOJI8D-20" value="Verktakar" style="rounded=1;whiteSpace=wrap;html=1;fontSize=12;fillColor=#FFCCE6;" parent="1" vertex="1">
          <mxGeometry x="231" y="588" width="120" height="60" as="geometry" />
        </mxCell>
        <mxCell id="u-FrUHWEFDejLxlOJI8D-21" value="Listi yfir verkbeiðnir&lt;br&gt;(hægt að leita upp verkbeiðni)" style="rounded=1;whiteSpace=wrap;html=1;fontSize=12;fillColor=#33FFFF;" parent="1" vertex="1">
          <mxGeometry x="-191" y="693" width="120" height="60" as="geometry" />
        </mxCell>
        <mxCell id="u-FrUHWEFDejLxlOJI8D-27" value="" style="edgeStyle=orthogonalEdgeStyle;rounded=0;orthogonalLoop=1;jettySize=auto;html=1;fontSize=12;" parent="1" source="u-FrUHWEFDejLxlOJI8D-24" target="u-FrUHWEFDejLxlOJI8D-19" edge="1">
          <mxGeometry relative="1" as="geometry" />
        </mxCell>
        <mxCell id="u-FrUHWEFDejLxlOJI8D-24" value="Fasteignir" style="rounded=1;whiteSpace=wrap;html=1;fontSize=12;fillColor=#FFCCE6;" parent="1" vertex="1">
          <mxGeometry x="88" y="586" width="120" height="60" as="geometry" />
        </mxCell>
        <mxCell id="u-FrUHWEFDejLxlOJI8D-28" value="Skrá verkbeiðni" style="rounded=1;whiteSpace=wrap;html=1;fontSize=12;fillColor=#33FFFF;" parent="1" vertex="1">
          <mxGeometry x="-34" y="693" width="120" height="60" as="geometry" />
        </mxCell>
        <mxCell id="u-FrUHWEFDejLxlOJI8D-30" value="Sýnir upl. um verktaka" style="rounded=1;whiteSpace=wrap;html=1;fontSize=12;fillColor=#33FFFF;" parent="1" vertex="1">
          <mxGeometry x="260" y="680" width="120" height="60" as="geometry" />
        </mxCell>
        <mxCell id="u-FrUHWEFDejLxlOJI8D-35" value="" style="edgeStyle=orthogonalEdgeStyle;rounded=0;orthogonalLoop=1;jettySize=auto;html=1;fontSize=12;" parent="1" source="u-FrUHWEFDejLxlOJI8D-32" target="u-FrUHWEFDejLxlOJI8D-28" edge="1">
          <mxGeometry relative="1" as="geometry" />
        </mxCell>
        <mxCell id="u-FrUHWEFDejLxlOJI8D-36" value="" style="edgeStyle=orthogonalEdgeStyle;rounded=0;orthogonalLoop=1;jettySize=auto;html=1;fontSize=12;" parent="1" source="u-FrUHWEFDejLxlOJI8D-32" target="u-FrUHWEFDejLxlOJI8D-21" edge="1">
          <mxGeometry relative="1" as="geometry" />
        </mxCell>
        <mxCell id="u-FrUHWEFDejLxlOJI8D-32" value="" style="rhombus;whiteSpace=wrap;html=1;fontSize=12;fillColor=#E6E6E6;" parent="1" vertex="1">
          <mxGeometry x="-63" y="659" width="19" height="21" as="geometry" />
        </mxCell>
        <mxCell id="u-FrUHWEFDejLxlOJI8D-34" value="" style="endArrow=classic;html=1;rounded=0;fontSize=12;exitX=0.5;exitY=1;exitDx=0;exitDy=0;entryX=0.5;entryY=0;entryDx=0;entryDy=0;" parent="1" source="u-FrUHWEFDejLxlOJI8D-17" target="u-FrUHWEFDejLxlOJI8D-32" edge="1">
          <mxGeometry width="50" height="50" relative="1" as="geometry">
            <mxPoint x="77" y="730" as="sourcePoint" />
            <mxPoint x="127" y="680" as="targetPoint" />
            <Array as="points">
              <mxPoint x="-53" y="646" />
            </Array>
          </mxGeometry>
        </mxCell>
        <mxCell id="u-FrUHWEFDejLxlOJI8D-38" value="Starfsmenn" style="rounded=1;whiteSpace=wrap;html=1;fontSize=12;fillColor=#FFCCE6;" parent="1" vertex="1">
          <mxGeometry x="508" y="579" width="120" height="60" as="geometry" />
        </mxCell>
        <mxCell id="u-FrUHWEFDejLxlOJI8D-42" value="" style="rhombus;whiteSpace=wrap;html=1;fontSize=12;fillColor=#E6E6E6;" parent="1" vertex="1">
          <mxGeometry x="550" y="650" width="24" height="24" as="geometry" />
        </mxCell>
        <mxCell id="u-FrUHWEFDejLxlOJI8D-43" value="Skrá starfsmann" style="rounded=1;whiteSpace=wrap;html=1;fontSize=12;fillColor=#33FFFF;" parent="1" vertex="1">
          <mxGeometry x="437" y="685" width="113" height="60" as="geometry" />
        </mxCell>
        <mxCell id="u-FrUHWEFDejLxlOJI8D-46" value="Yfirlit starfsmanna" style="rounded=1;whiteSpace=wrap;html=1;fontSize=12;fillColor=#33FFFF;" parent="1" vertex="1">
          <mxGeometry x="566" y="685" width="113" height="60" as="geometry" />
        </mxCell>
        <mxCell id="u-FrUHWEFDejLxlOJI8D-47" value="" style="endArrow=none;html=1;rounded=0;fontSize=12;exitX=0.5;exitY=0;exitDx=0;exitDy=0;" parent="1" source="u-FrUHWEFDejLxlOJI8D-42" edge="1">
          <mxGeometry width="50" height="50" relative="1" as="geometry">
            <mxPoint x="656" y="738" as="sourcePoint" />
            <mxPoint x="562" y="641" as="targetPoint" />
          </mxGeometry>
        </mxCell>
        <mxCell id="u-FrUHWEFDejLxlOJI8D-49" value="" style="endArrow=classic;html=1;rounded=0;fontSize=12;exitX=0.5;exitY=1;exitDx=0;exitDy=0;entryX=0.5;entryY=0;entryDx=0;entryDy=0;" parent="1" source="u-FrUHWEFDejLxlOJI8D-42" target="u-FrUHWEFDejLxlOJI8D-46" edge="1">
          <mxGeometry width="50" height="50" relative="1" as="geometry">
            <mxPoint x="649" y="718" as="sourcePoint" />
            <mxPoint x="628" y="674" as="targetPoint" />
            <Array as="points">
              <mxPoint x="623" y="674" />
            </Array>
          </mxGeometry>
        </mxCell>
        <mxCell id="u-FrUHWEFDejLxlOJI8D-50" value="" style="endArrow=classic;html=1;rounded=0;fontSize=12;entryX=0.5;entryY=0;entryDx=0;entryDy=0;exitX=0.5;exitY=1;exitDx=0;exitDy=0;" parent="1" source="u-FrUHWEFDejLxlOJI8D-42" target="u-FrUHWEFDejLxlOJI8D-43" edge="1">
          <mxGeometry width="50" height="50" relative="1" as="geometry">
            <mxPoint x="563" y="676" as="sourcePoint" />
            <mxPoint x="699" y="668" as="targetPoint" />
            <Array as="points">
              <mxPoint x="494" y="674" />
            </Array>
          </mxGeometry>
        </mxCell>
        <mxCell id="u-FrUHWEFDejLxlOJI8D-51" value="" style="rhombus;whiteSpace=wrap;html=1;fontSize=12;fillColor=#E6E6E6;" parent="1" vertex="1">
          <mxGeometry x="115" y="508" width="35" height="37" as="geometry" />
        </mxCell>
        <mxCell id="u-FrUHWEFDejLxlOJI8D-52" value="" style="rhombus;whiteSpace=wrap;html=1;fontSize=12;fillColor=#E6E6E6;" parent="1" vertex="1">
          <mxGeometry x="710" y="500" width="35" height="37" as="geometry" />
        </mxCell>
        <mxCell id="u-FrUHWEFDejLxlOJI8D-53" value="Fasteignir" style="rounded=1;whiteSpace=wrap;html=1;fontSize=12;fillColor=#FFCCE6;" parent="1" vertex="1">
          <mxGeometry x="767" y="579" width="120" height="60" as="geometry" />
        </mxCell>
        <mxCell id="u-FrUHWEFDejLxlOJI8D-54" value="" style="rhombus;whiteSpace=wrap;html=1;fontSize=12;fillColor=#E6E6E6;" parent="1" vertex="1">
          <mxGeometry x="809" y="650" width="24" height="24" as="geometry" />
        </mxCell>
        <mxCell id="u-FrUHWEFDejLxlOJI8D-55" value="Skrá Fasteign" style="rounded=1;whiteSpace=wrap;html=1;fontSize=12;fillColor=#33FFFF;" parent="1" vertex="1">
          <mxGeometry x="696" y="685" width="113" height="60" as="geometry" />
        </mxCell>
        <mxCell id="u-FrUHWEFDejLxlOJI8D-56" value="Yfirlit Fasteigna" style="rounded=1;whiteSpace=wrap;html=1;fontSize=12;fillColor=#33FFFF;" parent="1" vertex="1">
          <mxGeometry x="825" y="685" width="113" height="60" as="geometry" />
        </mxCell>
        <mxCell id="u-FrUHWEFDejLxlOJI8D-57" value="" style="endArrow=none;html=1;rounded=0;fontSize=12;exitX=0.5;exitY=0;exitDx=0;exitDy=0;" parent="1" source="u-FrUHWEFDejLxlOJI8D-54" edge="1">
          <mxGeometry width="50" height="50" relative="1" as="geometry">
            <mxPoint x="915" y="738" as="sourcePoint" />
            <mxPoint x="821" y="641" as="targetPoint" />
          </mxGeometry>
        </mxCell>
        <mxCell id="u-FrUHWEFDejLxlOJI8D-58" value="" style="endArrow=classic;html=1;rounded=0;fontSize=12;exitX=0.5;exitY=1;exitDx=0;exitDy=0;entryX=0.5;entryY=0;entryDx=0;entryDy=0;" parent="1" source="u-FrUHWEFDejLxlOJI8D-54" target="u-FrUHWEFDejLxlOJI8D-56" edge="1">
          <mxGeometry width="50" height="50" relative="1" as="geometry">
            <mxPoint x="908" y="718" as="sourcePoint" />
            <mxPoint x="887" y="674" as="targetPoint" />
            <Array as="points">
              <mxPoint x="882" y="674" />
            </Array>
          </mxGeometry>
        </mxCell>
        <mxCell id="u-FrUHWEFDejLxlOJI8D-59" value="" style="endArrow=classic;html=1;rounded=0;fontSize=12;entryX=0.5;entryY=0;entryDx=0;entryDy=0;exitX=0.5;exitY=1;exitDx=0;exitDy=0;" parent="1" source="u-FrUHWEFDejLxlOJI8D-54" target="u-FrUHWEFDejLxlOJI8D-55" edge="1">
          <mxGeometry width="50" height="50" relative="1" as="geometry">
            <mxPoint x="822" y="676" as="sourcePoint" />
            <mxPoint x="958" y="668" as="targetPoint" />
            <Array as="points">
              <mxPoint x="753" y="674" />
            </Array>
          </mxGeometry>
        </mxCell>
        <mxCell id="u-FrUHWEFDejLxlOJI8D-60" value="Verkbeiðnir" style="rounded=1;whiteSpace=wrap;html=1;fontSize=12;fillColor=#FFCCE6;" parent="1" vertex="1">
          <mxGeometry x="1044" y="579" width="120" height="60" as="geometry" />
        </mxCell>
        <mxCell id="u-FrUHWEFDejLxlOJI8D-61" value="" style="rhombus;whiteSpace=wrap;html=1;fontSize=12;fillColor=#E6E6E6;" parent="1" vertex="1">
          <mxGeometry x="1086" y="650" width="24" height="24" as="geometry" />
        </mxCell>
        <mxCell id="u-FrUHWEFDejLxlOJI8D-62" value="Allar verkbeiðnir" style="rounded=1;whiteSpace=wrap;html=1;fontSize=12;fillColor=#33FFFF;" parent="1" vertex="1">
          <mxGeometry x="973" y="685" width="113" height="60" as="geometry" />
        </mxCell>
        <mxCell id="u-FrUHWEFDejLxlOJI8D-63" value="Útistandandi Verkbeiðnir" style="rounded=1;whiteSpace=wrap;html=1;fontSize=12;fillColor=#33FFFF;" parent="1" vertex="1">
          <mxGeometry x="1102" y="685" width="113" height="60" as="geometry" />
        </mxCell>
        <mxCell id="u-FrUHWEFDejLxlOJI8D-64" value="" style="endArrow=none;html=1;rounded=0;fontSize=12;exitX=0.5;exitY=0;exitDx=0;exitDy=0;" parent="1" source="u-FrUHWEFDejLxlOJI8D-61" edge="1">
          <mxGeometry width="50" height="50" relative="1" as="geometry">
            <mxPoint x="1192" y="738" as="sourcePoint" />
            <mxPoint x="1098" y="641" as="targetPoint" />
          </mxGeometry>
        </mxCell>
        <mxCell id="u-FrUHWEFDejLxlOJI8D-65" value="" style="endArrow=classic;html=1;rounded=0;fontSize=12;exitX=0.5;exitY=1;exitDx=0;exitDy=0;entryX=0.5;entryY=0;entryDx=0;entryDy=0;" parent="1" source="u-FrUHWEFDejLxlOJI8D-61" target="u-FrUHWEFDejLxlOJI8D-63" edge="1">
          <mxGeometry width="50" height="50" relative="1" as="geometry">
            <mxPoint x="1185" y="718" as="sourcePoint" />
            <mxPoint x="1164" y="674" as="targetPoint" />
            <Array as="points">
              <mxPoint x="1159" y="674" />
            </Array>
          </mxGeometry>
        </mxCell>
        <mxCell id="u-FrUHWEFDejLxlOJI8D-66" value="" style="endArrow=classic;html=1;rounded=0;fontSize=12;entryX=0.5;entryY=0;entryDx=0;entryDy=0;exitX=0.5;exitY=1;exitDx=0;exitDy=0;" parent="1" source="u-FrUHWEFDejLxlOJI8D-61" target="u-FrUHWEFDejLxlOJI8D-62" edge="1">
          <mxGeometry width="50" height="50" relative="1" as="geometry">
            <mxPoint x="1099" y="676" as="sourcePoint" />
            <mxPoint x="1235" y="668" as="targetPoint" />
            <Array as="points">
              <mxPoint x="1030" y="674" />
            </Array>
          </mxGeometry>
        </mxCell>
        <mxCell id="u-FrUHWEFDejLxlOJI8D-69" value="" style="endArrow=classic;html=1;rounded=0;fontSize=12;entryX=0.558;entryY=0;entryDx=0;entryDy=0;entryPerimeter=0;" parent="1" target="u-FrUHWEFDejLxlOJI8D-70" edge="1">
          <mxGeometry width="50" height="50" relative="1" as="geometry">
            <mxPoint x="1097" y="675" as="sourcePoint" />
            <mxPoint x="1299" y="675" as="targetPoint" />
            <Array as="points">
              <mxPoint x="1294" y="675" />
            </Array>
          </mxGeometry>
        </mxCell>
        <mxCell id="u-FrUHWEFDejLxlOJI8D-70" value="Skrá verkbeiðni" style="rounded=1;whiteSpace=wrap;html=1;fontSize=12;fillColor=#33FFFF;" parent="1" vertex="1">
          <mxGeometry x="1231" y="685" width="113" height="60" as="geometry" />
        </mxCell>
        <mxCell id="b5BpNdKmhlKSAC-iLB6q-10" value="" style="edgeStyle=orthogonalEdgeStyle;rounded=0;orthogonalLoop=1;jettySize=auto;html=1;fontSize=12;" edge="1" parent="1" source="u-FrUHWEFDejLxlOJI8D-71">
          <mxGeometry relative="1" as="geometry">
            <mxPoint x="1501" y="719" as="targetPoint" />
          </mxGeometry>
        </mxCell>
        <mxCell id="u-FrUHWEFDejLxlOJI8D-71" value="Verktakar" style="rounded=1;whiteSpace=wrap;html=1;fontSize=12;fillColor=#FFCCE6;" parent="1" vertex="1">
          <mxGeometry x="1441" y="579" width="120" height="60" as="geometry" />
        </mxCell>
        <mxCell id="u-FrUHWEFDejLxlOJI8D-72" value="" style="rhombus;whiteSpace=wrap;html=1;fontSize=12;fillColor=#E6E6E6;" parent="1" vertex="1">
          <mxGeometry x="1483" y="650" width="24" height="24" as="geometry" />
        </mxCell>
        <mxCell id="u-FrUHWEFDejLxlOJI8D-73" value="Skrá verktaka" style="rounded=1;whiteSpace=wrap;html=1;fontSize=12;fillColor=#33FFFF;" parent="1" vertex="1">
          <mxGeometry x="1370" y="685" width="113" height="60" as="geometry" />
        </mxCell>
        <mxCell id="u-FrUHWEFDejLxlOJI8D-74" value="Yfirlit Verktaka" style="rounded=1;whiteSpace=wrap;html=1;fontSize=12;fillColor=#33FFFF;" parent="1" vertex="1">
          <mxGeometry x="1499" y="685" width="113" height="60" as="geometry" />
        </mxCell>
        <mxCell id="u-FrUHWEFDejLxlOJI8D-75" value="" style="endArrow=none;html=1;rounded=0;fontSize=12;exitX=0.5;exitY=0;exitDx=0;exitDy=0;" parent="1" source="u-FrUHWEFDejLxlOJI8D-72" edge="1">
          <mxGeometry width="50" height="50" relative="1" as="geometry">
            <mxPoint x="1589" y="738" as="sourcePoint" />
            <mxPoint x="1495" y="641" as="targetPoint" />
          </mxGeometry>
        </mxCell>
        <mxCell id="u-FrUHWEFDejLxlOJI8D-76" value="" style="endArrow=classic;html=1;rounded=0;fontSize=12;exitX=0.5;exitY=1;exitDx=0;exitDy=0;entryX=0.5;entryY=0;entryDx=0;entryDy=0;" parent="1" source="u-FrUHWEFDejLxlOJI8D-72" target="u-FrUHWEFDejLxlOJI8D-74" edge="1">
          <mxGeometry width="50" height="50" relative="1" as="geometry">
            <mxPoint x="1582" y="718" as="sourcePoint" />
            <mxPoint x="1561" y="674" as="targetPoint" />
            <Array as="points">
              <mxPoint x="1556" y="674" />
            </Array>
          </mxGeometry>
        </mxCell>
        <mxCell id="u-FrUHWEFDejLxlOJI8D-77" value="" style="endArrow=classic;html=1;rounded=0;fontSize=12;entryX=0.5;entryY=0;entryDx=0;entryDy=0;exitX=0.5;exitY=1;exitDx=0;exitDy=0;" parent="1" source="u-FrUHWEFDejLxlOJI8D-72" target="u-FrUHWEFDejLxlOJI8D-73" edge="1">
          <mxGeometry width="50" height="50" relative="1" as="geometry">
            <mxPoint x="1496" y="676" as="sourcePoint" />
            <mxPoint x="1632" y="668" as="targetPoint" />
            <Array as="points">
              <mxPoint x="1427" y="674" />
            </Array>
          </mxGeometry>
        </mxCell>
        <mxCell id="b5BpNdKmhlKSAC-iLB6q-1" value="" style="endArrow=open;endFill=1;endSize=12;html=1;rounded=0;fontSize=12;exitX=0.5;exitY=1;exitDx=0;exitDy=0;entryX=0.5;entryY=0;entryDx=0;entryDy=0;" edge="1" parent="1" source="u-FrUHWEFDejLxlOJI8D-52" target="u-FrUHWEFDejLxlOJI8D-38">
          <mxGeometry width="160" relative="1" as="geometry">
            <mxPoint x="620" y="718" as="sourcePoint" />
            <mxPoint x="780" y="718" as="targetPoint" />
            <Array as="points">
              <mxPoint x="568" y="537" />
            </Array>
          </mxGeometry>
        </mxCell>
        <mxCell id="b5BpNdKmhlKSAC-iLB6q-2" value="" style="endArrow=open;endFill=1;endSize=12;html=1;rounded=0;fontSize=12;entryX=0.5;entryY=0;entryDx=0;entryDy=0;" edge="1" parent="1" target="u-FrUHWEFDejLxlOJI8D-53">
          <mxGeometry width="160" relative="1" as="geometry">
            <mxPoint x="727" y="536" as="sourcePoint" />
            <mxPoint x="780" y="718" as="targetPoint" />
            <Array as="points">
              <mxPoint x="827" y="536" />
            </Array>
          </mxGeometry>
        </mxCell>
        <mxCell id="b5BpNdKmhlKSAC-iLB6q-4" value="" style="endArrow=open;endFill=1;endSize=12;html=1;rounded=0;fontSize=12;entryX=0.5;entryY=0;entryDx=0;entryDy=0;" edge="1" parent="1" target="u-FrUHWEFDejLxlOJI8D-60">
          <mxGeometry width="160" relative="1" as="geometry">
            <mxPoint x="728" y="537" as="sourcePoint" />
            <mxPoint x="969" y="718" as="targetPoint" />
            <Array as="points">
              <mxPoint x="1104" y="537" />
            </Array>
          </mxGeometry>
        </mxCell>
        <mxCell id="b5BpNdKmhlKSAC-iLB6q-5" value="" style="endArrow=open;endFill=1;endSize=12;html=1;rounded=0;fontSize=12;entryX=0.5;entryY=0;entryDx=0;entryDy=0;" edge="1" parent="1" target="u-FrUHWEFDejLxlOJI8D-71">
          <mxGeometry width="160" relative="1" as="geometry">
            <mxPoint x="729" y="534" as="sourcePoint" />
            <mxPoint x="969" y="718" as="targetPoint" />
            <Array as="points">
              <mxPoint x="1501" y="534" />
            </Array>
          </mxGeometry>
        </mxCell>
        <mxCell id="b5BpNdKmhlKSAC-iLB6q-6" value="" style="endArrow=open;endFill=1;endSize=12;html=1;rounded=0;fontSize=12;entryX=0.5;entryY=0;entryDx=0;entryDy=0;exitX=0.5;exitY=1;exitDx=0;exitDy=0;" edge="1" parent="1" source="u-FrUHWEFDejLxlOJI8D-51" target="u-FrUHWEFDejLxlOJI8D-20">
          <mxGeometry width="160" relative="1" as="geometry">
            <mxPoint x="358" y="695" as="sourcePoint" />
            <mxPoint x="518" y="695" as="targetPoint" />
            <Array as="points">
              <mxPoint x="291" y="545" />
            </Array>
          </mxGeometry>
        </mxCell>
        <mxCell id="b5BpNdKmhlKSAC-iLB6q-7" value="" style="endArrow=open;endFill=1;endSize=12;html=1;rounded=0;fontSize=12;entryX=0.359;entryY=0.039;entryDx=0;entryDy=0;entryPerimeter=0;" edge="1" parent="1" target="u-FrUHWEFDejLxlOJI8D-24">
          <mxGeometry width="160" relative="1" as="geometry">
            <mxPoint x="133" y="546" as="sourcePoint" />
            <mxPoint x="518" y="695" as="targetPoint" />
          </mxGeometry>
        </mxCell>
        <mxCell id="b5BpNdKmhlKSAC-iLB6q-8" value="" style="endArrow=open;endFill=1;endSize=12;html=1;rounded=0;fontSize=12;entryX=0.5;entryY=0;entryDx=0;entryDy=0;" edge="1" parent="1" target="u-FrUHWEFDejLxlOJI8D-17">
          <mxGeometry width="160" relative="1" as="geometry">
            <mxPoint x="132" y="548" as="sourcePoint" />
            <mxPoint x="518" y="695" as="targetPoint" />
            <Array as="points">
              <mxPoint x="5" y="548" />
            </Array>
          </mxGeometry>
        </mxCell>
      </root>
    </mxGraphModel>
  </diagram>
</mxfile>
